<svg xmlns="http://www.w3.org/2000/svg" viewBox="0 0 64 64">
  <!-- Background -->
  <rect width="64" height="64" fill="#1a1a1a"/>
  
  <!-- Forest/trees silhouette -->
  <!-- Left tree -->
  <polygon points="12,40 8,32 6,28 4,24 8,26 10,22 12,18 14,22 16,26 20,24 22,28 20,32 16,40" fill="#2d5016"/>
  
  <!-- Center tree (taller) -->
  <polygon points="32,42 25,28 22,20 20,12 25,15 28,8 32,4 36,8 39,15 44,12 42,20 39,28 32,42" fill="#1f3d0f"/>
  
  <!-- Right tree -->
  <polygon points="52,40 48,32 46,28 44,24 48,26 50,22 52,18 54,22 56,26 60,24 62,28 60,32 56,40" fill="#2d5016"/>
  
  <!-- Stars/lights -->
  <circle cx="20" cy="10" r="1.5" fill="#ffeb3b" opacity="0.8"/>
  <circle cx="44" cy="14" r="1.5" fill="#ffeb3b" opacity="0.8"/>
  <circle cx="32" cy="8" r="2" fill="#ffeb3b" opacity="0.9"/>
  <circle cx="52" cy="12" r="1" fill="#ffeb3b" opacity="0.7"/>
</svg>